Title                            : Wo hu cang long
Also Known As                    : Crouching Tiger, Hidden Dragon
Year                             : 2000
Genre                            : Action | Adventure | Drama | Romance
iMDB URL                         : http://www.imdb.com/title/tt0190332/
Awards                           : Won 4 Oscars. Another 73 wins & 90 nominations

Complete name                    : Crouching.Tiger.Hidden.Dragon.DVDRIP.XviD-ZEKTORM.avi
Format                           : AVI
File size                        : 701 MiB
Duration                         : 2h 0mn
Overall bit rate                 : 815 Kbps
Subtitles                        : English (Format: srt/VobSub)
Source                           : DVD NTSC

Video
Format                           : MPEG-4 Visual
Format profile                   : Streaming Video@L1
Codec ID                         : XVID
Codec ID/Hint                    : XviD
Duration                         : 2h 0mn
Bit rate                         : 698 Kbps
Width                            : 720 pixels
Height                           : 304 pixels
Display aspect ratio             : 2.35
Frame rate                       : 23.976 fps
Resolution                       : 24 bits
Colorimetry                      : 4:2:0
Scan type                        : Progressive
Bits/(Pixel*Frame)               : 0.133
Stream size                      : 600 MiB (86%)
Writing library                  : XviD

Audio
Language                         : Mandarin
Format                           : MPEG Audio
Format version                   : Version 1
Format profile                   : Layer 3
Codec ID                         : 55
Codec ID/Hint                    : MP3
Duration                         : 2h 0mn
Bit rate mode                    : Variable
Bit rate                         : 105 Kbps
Minimum bit rate                 : 128 Kbps
Channel(s)                       : 2 channels
Sampling rate                    : 48.0 KHz
Resolution                       : 16 bits
Stream size                      : 90.2 MiB (13%)
Writing library                  : LAME3.98r
Encoding settings                : ABR
